<?xml version="1.0" encoding="utf-8" standalone="no"?>
<!DOCTYPE svg PUBLIC "-//W3C//DTD SVG 1.1//EN"
  "http://www.w3.org/Graphics/SVG/1.1/DTD/svg11.dtd">
<svg xmlns:xlink="http://www.w3.org/1999/xlink" width="952.344375pt" height="532.331681pt" viewBox="0 0 952.344375 532.331681" xmlns="http://www.w3.org/2000/svg" version="1.1">
 <metadata>
  <rdf:RDF xmlns:dc="http://purl.org/dc/elements/1.1/" xmlns:cc="http://creativecommons.org/ns#" xmlns:rdf="http://www.w3.org/1999/02/22-rdf-syntax-ns#">
   <cc:Work>
    <dc:type rdf:resource="http://purl.org/dc/dcmitype/StillImage"/>
    <dc:date>2026-06-07T20:37:17.114128</dc:date>
    <dc:format>image/svg+xml</dc:format>
    <dc:creator>
     <cc:Agent>
      <dc:title>Matplotlib v3.10.0, https://matplotlib.org/</dc:title>
     </cc:Agent>
    </dc:creator>
   </cc:Work>
  </rdf:RDF>
 </metadata>
 <defs>
  <style type="text/css">*{stroke-linejoin: round; stroke-linecap: butt}</style>
 </defs>
 <g id="figure_1">
  <g id="patch_1">
   <path d="M 0 532.331681 
L 952.344375 532.331681 
L 952.344375 0 
L 0 0 
z
" style="fill: #ffffff"/>
  </g>
  <g id="axes_1">
   <g id="patch_2">
    <path d="M 47.474375 474.217044 
L 945.144375 474.217044 
L 945.144375 27.526875 
L 47.474375 27.526875 
z
" style="fill: #ffffff"/>
   </g>
   <g id="matplotlib.axis_1">
    <g id="xtick_1">
     <g id="line2d_1">
      <path d="M 134.150956 474.217044 
L 134.150956 27.526875 
" clip-path="url(#p80077abbc4)" style="fill: none; stroke: #b0b0b0; stroke-opacity: 0.18; stroke-width: 0.8; stroke-linecap: square"/>
     </g>
     <g id="line2d_2">
      <defs>
       <path id="m901a238996" d="M 0 0 
L 0 3.5 
" style="stroke: #000000; stroke-width: 0.8"/>
      </defs>
      <g>
       <use xlink:href="#m901a238996" x="134.150956" y="474.217044" style="stroke: #000000; stroke-width: 0.8"/>
      </g>
     </g>
     <g id="text_1">
      <!-- B0 Embedding -->
      <g transform="translate(71.355025 517.220236) rotate(-25) scale(0.1 -0.1)">
       <defs>
        <path id="NotoSansCJKjp-Regular-42" d="M 646 0 
L 2138 0 
C 3187 0 3917 454 3917 1376 
C 3917 2016 3520 2387 2963 2496 
L 2963 2528 
C 3405 2669 3648 3078 3648 3546 
C 3648 4371 2982 4691 2035 4691 
L 646 4691 
L 646 0 
z
M 1235 2701 
L 1235 4224 
L 1958 4224 
C 2694 4224 3066 4019 3066 3469 
C 3066 2989 2739 2701 1933 2701 
L 1235 2701 
z
M 1235 474 
L 1235 2240 
L 2054 2240 
C 2880 2240 3334 1978 3334 1395 
C 3334 762 2861 474 2054 474 
L 1235 474 
z
" transform="scale(0.015625)"/>
        <path id="NotoSansCJKjp-Regular-30" d="M 1779 -83 
C 2669 -83 3238 723 3238 2362 
C 3238 3987 2669 4774 1779 4774 
C 883 4774 320 3987 320 2362 
C 320 723 883 -83 1779 -83 
z
M 1779 390 
C 1248 390 883 986 883 2362 
C 883 3731 1248 4314 1779 4314 
C 2310 4314 2675 3731 2675 2362 
C 2675 986 2310 390 1779 390 
z
" transform="scale(0.015625)"/>
        <path id="NotoSansCJKjp-Regular-20" transform="scale(0.015625)"/>
        <path id="NotoSansCJKjp-Regular-45" d="M 646 0 
L 3418 0 
L 3418 506 
L 1235 506 
L 1235 2214 
L 3014 2214 
L 3014 2720 
L 1235 2720 
L 1235 4192 
L 3347 4192 
L 3347 4691 
L 646 4691 
L 646 0 
z
" transform="scale(0.015625)"/>
        <path id="NotoSansCJKjp-Regular-6d" d="M 589 0 
L 1178 0 
L 1178 2522 
C 1491 2880 1786 3053 2048 3053 
C 2490 3053 2694 2778 2694 2125 
L 2694 0 
L 3277 0 
L 3277 2522 
C 3603 2880 3885 3053 4154 3053 
C 4595 3053 4800 2778 4800 2125 
L 4800 0 
L 5382 0 
L 5382 2202 
C 5382 3085 5043 3565 4333 3565 
C 3904 3565 3546 3290 3181 2899 
C 3040 3309 2758 3565 2221 3565 
C 1805 3565 1446 3302 1139 2970 
L 1126 2970 
L 1069 3475 
L 589 3475 
L 589 0 
z
" transform="scale(0.015625)"/>
        <path id="NotoSansCJKjp-Regular-62" d="M 2118 -83 
C 2912 -83 3629 602 3629 1792 
C 3629 2867 3142 3565 2246 3565 
C 1856 3565 1472 3347 1152 3078 
L 1178 3699 
L 1178 5094 
L 589 5094 
L 589 0 
L 1056 0 
L 1107 358 
L 1133 358 
C 1434 83 1798 -83 2118 -83 
z
M 2022 410 
C 1792 410 1478 499 1178 768 
L 1178 2598 
C 1504 2906 1811 3072 2099 3072 
C 2765 3072 3021 2560 3021 1786 
C 3021 928 2598 410 2022 410 
z
" transform="scale(0.015625)"/>
        <path id="NotoSansCJKjp-Regular-65" d="M 1997 -83 
C 2464 -83 2835 70 3136 269 
L 2931 659 
C 2669 486 2400 384 2061 384 
C 1402 384 947 858 909 1600 
L 3251 1600 
C 3264 1690 3277 1805 3277 1933 
C 3277 2925 2778 3565 1888 3565 
C 1094 3565 333 2867 333 1734 
C 333 589 1069 -83 1997 -83 
z
M 902 2016 
C 973 2707 1408 3098 1901 3098 
C 2445 3098 2765 2720 2765 2016 
L 902 2016 
z
" transform="scale(0.015625)"/>
        <path id="NotoSansCJKjp-Regular-64" d="M 1773 -83 
C 2189 -83 2560 141 2829 410 
L 2848 410 
L 2899 0 
L 3379 0 
L 3379 5094 
L 2790 5094 
L 2790 3757 
L 2822 3162 
C 2515 3411 2253 3565 1843 3565 
C 1050 3565 339 2861 339 1734 
C 339 576 902 -83 1773 -83 
z
M 1901 410 
C 1293 410 941 902 941 1741 
C 941 2534 1389 3072 1946 3072 
C 2234 3072 2502 2970 2790 2707 
L 2790 883 
C 2502 563 2221 410 1901 410 
z
" transform="scale(0.015625)"/>
        <path id="NotoSansCJKjp-Regular-69" d="M 589 0 
L 1178 0 
L 1178 3475 
L 589 3475 
L 589 0 
z
M 883 4192 
C 1114 4192 1274 4346 1274 4582 
C 1274 4806 1114 4960 883 4960 
C 653 4960 499 4806 499 4582 
C 499 4346 653 4192 883 4192 
z
" transform="scale(0.015625)"/>
        <path id="NotoSansCJKjp-Regular-6e" d="M 589 0 
L 1178 0 
L 1178 2522 
C 1523 2874 1766 3053 2125 3053 
C 2586 3053 2784 2778 2784 2125 
L 2784 0 
L 3366 0 
L 3366 2202 
C 3366 3085 3034 3565 2304 3565 
C 1830 3565 1466 3302 1139 2970 
L 1126 2970 
L 1069 3475 
L 589 3475 
L 589 0 
z
" transform="scale(0.015625)"/>
        <path id="NotoSansCJKjp-Regular-67" d="M 1760 -1600 
C 2835 -1600 3520 -1043 3520 -397 
C 3520 179 3110 429 2310 429 
L 1626 429 
C 1158 429 1018 589 1018 806 
C 1018 998 1114 1114 1242 1222 
C 1395 1146 1587 1101 1754 1101 
C 2470 1101 3027 1568 3027 2310 
C 3027 2611 2912 2867 2746 3027 
L 3456 3027 
L 3456 3475 
L 2246 3475 
C 2125 3526 1952 3565 1754 3565 
C 1056 3565 454 3085 454 2323 
C 454 1907 678 1568 909 1389 
L 909 1363 
C 723 1235 525 1005 525 717 
C 525 442 659 256 838 147 
L 838 115 
C 512 -83 326 -371 326 -672 
C 326 -1267 915 -1600 1760 -1600 
z
M 1754 1498 
C 1357 1498 1018 1818 1018 2323 
C 1018 2835 1350 3136 1754 3136 
C 2170 3136 2496 2835 2496 2323 
C 2496 1818 2157 1498 1754 1498 
z
M 1843 -1197 
C 1210 -1197 838 -960 838 -589 
C 838 -390 941 -179 1190 0 
C 1344 -38 1510 -51 1638 -51 
L 2240 -51 
C 2701 -51 2944 -166 2944 -493 
C 2944 -851 2515 -1197 1843 -1197 
z
" transform="scale(0.015625)"/>
       </defs>
       <use xlink:href="#NotoSansCJKjp-Regular-42"/>
       <use xlink:href="#NotoSansCJKjp-Regular-30" transform="translate(65.699997 0)"/>
       <use xlink:href="#NotoSansCJKjp-Regular-20" transform="translate(121.199982 0)"/>
       <use xlink:href="#NotoSansCJKjp-Regular-45" transform="translate(143.599976 0)"/>
       <use xlink:href="#NotoSansCJKjp-Regular-6d" transform="translate(202.499969 0)"/>
       <use xlink:href="#NotoSansCJKjp-Regular-62" transform="translate(295.09996 0)"/>
       <use xlink:href="#NotoSansCJKjp-Regular-65" transform="translate(356.899948 0)"/>
       <use xlink:href="#NotoSansCJKjp-Regular-64" transform="translate(412.299942 0)"/>
       <use xlink:href="#NotoSansCJKjp-Regular-64" transform="translate(474.299927 0)"/>
       <use xlink:href="#NotoSansCJKjp-Regular-69" transform="translate(536.299911 0)"/>
       <use xlink:href="#NotoSansCJKjp-Regular-6e" transform="translate(563.799896 0)"/>
       <use xlink:href="#NotoSansCJKjp-Regular-67" transform="translate(624.799881 0)"/>
      </g>
     </g>
    </g>
    <g id="xtick_2">
     <g id="line2d_3">
      <path d="M 254.870429 474.217044 
L 254.870429 27.526875 
" clip-path="url(#p80077abbc4)" style="fill: none; stroke: #b0b0b0; stroke-opacity: 0.18; stroke-width: 0.8; stroke-linecap: square"/>
     </g>
     <g id="line2d_4">
      <g>
       <use xlink:href="#m901a238996" x="254.870429" y="474.217044" style="stroke: #000000; stroke-width: 0.8"/>
      </g>
     </g>
     <g id="text_2">
      <!-- B2 MLP scorer -->
      <g transform="translate(194.430169 516.16303) rotate(-25) scale(0.1 -0.1)">
       <defs>
        <path id="NotoSansCJKjp-Regular-32" d="M 282 0 
L 3232 0 
L 3232 506 
L 1933 506 
C 1696 506 1408 480 1165 461 
C 2266 1504 3008 2458 3008 3398 
C 3008 4230 2477 4774 1638 4774 
C 1043 4774 634 4506 256 4090 
L 595 3757 
C 858 4070 1184 4301 1568 4301 
C 2150 4301 2432 3910 2432 3373 
C 2432 2566 1754 1632 282 346 
L 282 0 
z
" transform="scale(0.015625)"/>
        <path id="NotoSansCJKjp-Regular-4d" d="M 646 0 
L 1178 0 
L 1178 2598 
C 1178 3002 1139 3571 1101 3981 
L 1126 3981 
L 1504 2912 
L 2394 474 
L 2790 474 
L 3674 2912 
L 4051 3981 
L 4077 3981 
C 4045 3571 4000 3002 4000 2598 
L 4000 0 
L 4550 0 
L 4550 4691 
L 3840 4691 
L 2944 2182 
C 2835 1862 2739 1530 2618 1203 
L 2592 1203 
C 2477 1530 2374 1862 2253 2182 
L 1357 4691 
L 646 4691 
L 646 0 
z
" transform="scale(0.015625)"/>
        <path id="NotoSansCJKjp-Regular-4c" d="M 646 0 
L 3290 0 
L 3290 506 
L 1235 506 
L 1235 4691 
L 646 4691 
L 646 0 
z
" transform="scale(0.015625)"/>
        <path id="NotoSansCJKjp-Regular-50" d="M 646 0 
L 1235 0 
L 1235 1869 
L 2010 1869 
C 3040 1869 3738 2323 3738 3315 
C 3738 4339 3034 4691 1984 4691 
L 646 4691 
L 646 0 
z
M 1235 2349 
L 1235 4211 
L 1907 4211 
C 2733 4211 3149 4000 3149 3315 
C 3149 2643 2758 2349 1933 2349 
L 1235 2349 
z
" transform="scale(0.015625)"/>
        <path id="NotoSansCJKjp-Regular-73" d="M 1498 -83 
C 2317 -83 2758 384 2758 947 
C 2758 1606 2208 1811 1702 2003 
C 1312 2150 954 2278 954 2605 
C 954 2880 1158 3110 1600 3110 
C 1907 3110 2150 2976 2387 2803 
L 2669 3168 
C 2406 3386 2022 3565 1594 3565 
C 832 3565 397 3130 397 2579 
C 397 1984 922 1754 1408 1574 
C 1792 1434 2202 1267 2202 915 
C 2202 614 1978 371 1517 371 
C 1101 371 794 538 486 787 
L 205 397 
C 531 122 1005 -83 1498 -83 
z
" transform="scale(0.015625)"/>
        <path id="NotoSansCJKjp-Regular-63" d="M 1958 -83 
C 2374 -83 2771 83 3085 352 
L 2829 749 
C 2611 557 2330 403 2010 403 
C 1370 403 934 934 934 1734 
C 934 2534 1395 3072 2029 3072 
C 2298 3072 2522 2950 2720 2771 
L 3014 3155 
C 2771 3373 2458 3565 2003 3565 
C 1107 3565 333 2893 333 1734 
C 333 582 1037 -83 1958 -83 
z
" transform="scale(0.015625)"/>
        <path id="NotoSansCJKjp-Regular-6f" d="M 1939 -83 
C 2790 -83 3546 582 3546 1734 
C 3546 2893 2790 3565 1939 3565 
C 1088 3565 333 2893 333 1734 
C 333 582 1088 -83 1939 -83 
z
M 1939 403 
C 1338 403 934 934 934 1734 
C 934 2534 1338 3072 1939 3072 
C 2541 3072 2950 2534 2950 1734 
C 2950 934 2541 403 1939 403 
z
" transform="scale(0.015625)"/>
        <path id="NotoSansCJKjp-Regular-72" d="M 589 0 
L 1178 0 
L 1178 2234 
C 1408 2822 1760 3040 2048 3040 
C 2195 3040 2272 3021 2387 2982 
L 2496 3488 
C 2387 3546 2278 3565 2125 3565 
C 1741 3565 1382 3283 1139 2842 
L 1126 2842 
L 1069 3475 
L 589 3475 
L 589 0 
z
" transform="scale(0.015625)"/>
       </defs>
       <use xlink:href="#NotoSansCJKjp-Regular-42"/>
       <use xlink:href="#NotoSansCJKjp-Regular-32" transform="translate(65.699997 0)"/>
       <use xlink:href="#NotoSansCJKjp-Regular-20" transform="translate(121.199982 0)"/>
       <use xlink:href="#NotoSansCJKjp-Regular-4d" transform="translate(143.599976 0)"/>
       <use xlink:href="#NotoSansCJKjp-Regular-4c" transform="translate(224.799957 0)"/>
       <use xlink:href="#NotoSansCJKjp-Regular-50" transform="translate(279.099945 0)"/>
       <use xlink:href="#NotoSansCJKjp-Regular-20" transform="translate(342.399933 0)"/>
       <use xlink:href="#NotoSansCJKjp-Regular-73" transform="translate(364.799927 0)"/>
       <use xlink:href="#NotoSansCJKjp-Regular-63" transform="translate(411.599915 0)"/>
       <use xlink:href="#NotoSansCJKjp-Regular-6f" transform="translate(462.599899 0)"/>
       <use xlink:href="#NotoSansCJKjp-Regular-72" transform="translate(523.19989 0)"/>
       <use xlink:href="#NotoSansCJKjp-Regular-65" transform="translate(561.999878 0)"/>
       <use xlink:href="#NotoSansCJKjp-Regular-72" transform="translate(617.399872 0)"/>
      </g>
     </g>
    </g>
    <g id="xtick_3">
     <g id="line2d_5">
      <path d="M 375.589902 474.217044 
L 375.589902 27.526875 
" clip-path="url(#p80077abbc4)" style="fill: none; stroke: #b0b0b0; stroke-opacity: 0.18; stroke-width: 0.8; stroke-linecap: square"/>
     </g>
     <g id="line2d_6">
      <g>
       <use xlink:href="#m901a238996" x="375.589902" y="474.217044" style="stroke: #000000; stroke-width: 0.8"/>
      </g>
     </g>
     <g id="text_3">
      <!-- B3 Cross-encoder -->
      <g transform="translate(300.368328 523.055669) rotate(-25) scale(0.1 -0.1)">
       <defs>
        <path id="NotoSansCJKjp-Regular-33" d="M 1683 -83 
C 2522 -83 3194 416 3194 1254 
C 3194 1901 2752 2310 2202 2445 
L 2202 2477 
C 2701 2650 3034 3034 3034 3603 
C 3034 4346 2458 4774 1664 4774 
C 1126 4774 710 4538 358 4218 
L 672 3846 
C 941 4115 1267 4301 1645 4301 
C 2138 4301 2438 4006 2438 3558 
C 2438 3053 2112 2662 1139 2662 
L 1139 2214 
C 2227 2214 2598 1843 2598 1274 
C 2598 736 2208 403 1645 403 
C 1114 403 762 659 486 941 
L 186 563 
C 493 224 954 -83 1683 -83 
z
" transform="scale(0.015625)"/>
        <path id="NotoSansCJKjp-Regular-43" d="M 2413 -83 
C 3021 -83 3482 160 3853 589 
L 3526 966 
C 3226 634 2886 435 2438 435 
C 1542 435 979 1178 979 2362 
C 979 3533 1574 4256 2458 4256 
C 2861 4256 3168 4077 3418 3814 
L 3738 4198 
C 3469 4499 3021 4774 2451 4774 
C 1261 4774 371 3859 371 2342 
C 371 819 1242 -83 2413 -83 
z
" transform="scale(0.015625)"/>
        <path id="NotoSansCJKjp-Regular-2d" d="M 294 1568 
L 1933 1568 
L 1933 2016 
L 294 2016 
L 294 1568 
z
" transform="scale(0.015625)"/>
       </defs>
       <use xlink:href="#NotoSansCJKjp-Regular-42"/>
       <use xlink:href="#NotoSansCJKjp-Regular-33" transform="translate(65.699997 0)"/>
       <use xlink:href="#NotoSansCJKjp-Regular-20" transform="translate(121.199982 0)"/>
       <use xlink:href="#NotoSansCJKjp-Regular-43" transform="translate(143.599976 0)"/>
       <use xlink:href="#NotoSansCJKjp-Regular-72" transform="translate(207.399963 0)"/>
       <use xlink:href="#NotoSansCJKjp-Regular-6f" transform="translate(246.199951 0)"/>
       <use xlink:href="#NotoSansCJKjp-Regular-73" transform="translate(306.799942 0)"/>
       <use xlink:href="#NotoSansCJKjp-Regular-73" transform="translate(353.59993 0)"/>
       <use xlink:href="#NotoSansCJKjp-Regular-2d" transform="translate(400.399918 0)"/>
       <use xlink:href="#NotoSansCJKjp-Regular-65" transform="translate(435.099915 0)"/>
       <use xlink:href="#NotoSansCJKjp-Regular-6e" transform="translate(490.499908 0)"/>
       <use xlink:href="#NotoSansCJKjp-Regular-63" transform="translate(551.499893 0)"/>
       <use xlink:href="#NotoSansCJKjp-Regular-6f" transform="translate(602.499878 0)"/>
       <use xlink:href="#NotoSansCJKjp-Regular-64" transform="translate(663.099869 0)"/>
       <use xlink:href="#NotoSansCJKjp-Regular-65" transform="translate(725.099854 0)"/>
       <use xlink:href="#NotoSansCJKjp-Regular-72" transform="translate(780.499847 0)"/>
      </g>
     </g>
    </g>
    <g id="xtick_4">
     <g id="line2d_7">
      <path d="M 496.309375 474.217044 
L 496.309375 27.526875 
" clip-path="url(#p80077abbc4)" style="fill: none; stroke: #b0b0b0; stroke-opacity: 0.18; stroke-width: 0.8; stroke-linecap: square"/>
     </g>
     <g id="line2d_8">
      <g>
       <use xlink:href="#m901a238996" x="496.309375" y="474.217044" style="stroke: #000000; stroke-width: 0.8"/>
      </g>
     </g>
     <g id="text_4">
      <!-- G5 0.5B SFT -->
      <g transform="translate(445.637413 511.607997) rotate(-25) scale(0.1 -0.1)">
       <defs>
        <path id="NotoSansCJKjp-Regular-47" d="M 2490 -83 
C 3117 -83 3635 147 3936 461 
L 3936 2432 
L 2394 2432 
L 2394 1939 
L 3392 1939 
L 3392 710 
C 3206 538 2880 435 2547 435 
C 1542 435 979 1178 979 2362 
C 979 3533 1594 4256 2541 4256 
C 3008 4256 3315 4058 3552 3814 
L 3872 4198 
C 3603 4480 3174 4774 2522 4774 
C 1280 4774 371 3859 371 2342 
C 371 819 1254 -83 2490 -83 
z
" transform="scale(0.015625)"/>
        <path id="NotoSansCJKjp-Regular-35" d="M 1677 -83 
C 2464 -83 3213 499 3213 1523 
C 3213 2560 2573 3021 1798 3021 
C 1517 3021 1306 2950 1094 2835 
L 1216 4192 
L 2982 4192 
L 2982 4691 
L 704 4691 
L 550 2502 
L 864 2304 
C 1133 2483 1331 2579 1645 2579 
C 2234 2579 2618 2182 2618 1510 
C 2618 826 2176 403 1619 403 
C 1075 403 730 653 467 922 
L 173 538 
C 493 224 941 -83 1677 -83 
z
" transform="scale(0.015625)"/>
        <path id="NotoSansCJKjp-Regular-2e" d="M 890 -83 
C 1120 -83 1312 96 1312 358 
C 1312 627 1120 806 890 806 
C 653 806 467 627 467 358 
C 467 96 653 -83 890 -83 
z
" transform="scale(0.015625)"/>
        <path id="NotoSansCJKjp-Regular-53" d="M 1946 -83 
C 2925 -83 3539 506 3539 1248 
C 3539 1946 3117 2266 2573 2502 
L 1907 2790 
C 1542 2944 1126 3117 1126 3578 
C 1126 3994 1472 4256 2003 4256 
C 2438 4256 2784 4090 3072 3821 
L 3379 4198 
C 3053 4538 2560 4774 2003 4774 
C 1152 4774 525 4256 525 3533 
C 525 2848 1043 2515 1478 2330 
L 2150 2035 
C 2598 1837 2938 1683 2938 1197 
C 2938 742 2573 435 1952 435 
C 1466 435 992 666 659 1018 
L 307 608 
C 710 186 1280 -83 1946 -83 
z
" transform="scale(0.015625)"/>
        <path id="NotoSansCJKjp-Regular-46" d="M 646 0 
L 1235 0 
L 1235 2106 
L 3027 2106 
L 3027 2605 
L 1235 2605 
L 1235 4192 
L 3347 4192 
L 3347 4691 
L 646 4691 
L 646 0 
z
" transform="scale(0.015625)"/>
        <path id="NotoSansCJKjp-Regular-54" d="M 1619 0 
L 2214 0 
L 2214 4192 
L 3635 4192 
L 3635 4691 
L 198 4691 
L 198 4192 
L 1619 4192 
L 1619 0 
z
" transform="scale(0.015625)"/>
       </defs>
       <use xlink:href="#NotoSansCJKjp-Regular-47"/>
       <use xlink:href="#NotoSansCJKjp-Regular-35" transform="translate(68.899994 0)"/>
       <use xlink:href="#NotoSansCJKjp-Regular-20" transform="translate(124.399979 0)"/>
       <use xlink:href="#NotoSansCJKjp-Regular-30" transform="translate(146.799973 0)"/>
       <use xlink:href="#NotoSansCJKjp-Regular-2e" transform="translate(202.299957 0)"/>
       <use xlink:href="#NotoSansCJKjp-Regular-35" transform="translate(230.099945 0)"/>
       <use xlink:href="#NotoSansCJKjp-Regular-42" transform="translate(285.59993 0)"/>
       <use xlink:href="#NotoSansCJKjp-Regular-20" transform="translate(351.299927 0)"/>
       <use xlink:href="#NotoSansCJKjp-Regular-53" transform="translate(373.699921 0)"/>
       <use xlink:href="#NotoSansCJKjp-Regular-46" transform="translate(433.299911 0)"/>
       <use xlink:href="#NotoSansCJKjp-Regular-54" transform="translate(488.499908 0)"/>
      </g>
     </g>
    </g>
    <g id="xtick_5">
     <g id="line2d_9">
      <path d="M 617.028848 474.217044 
L 617.028848 27.526875 
" clip-path="url(#p80077abbc4)" style="fill: none; stroke: #b0b0b0; stroke-opacity: 0.18; stroke-width: 0.8; stroke-linecap: square"/>
     </g>
     <g id="line2d_10">
      <g>
       <use xlink:href="#m901a238996" x="617.028848" y="474.217044" style="stroke: #000000; stroke-width: 0.8"/>
      </g>
     </g>
     <g id="text_5">
      <!-- G5 1.5B SFT -->
      <g transform="translate(566.356886 511.607997) rotate(-25) scale(0.1 -0.1)">
       <defs>
        <path id="NotoSansCJKjp-Regular-31" d="M 563 0 
L 3136 0 
L 3136 486 
L 2195 486 
L 2195 4691 
L 1747 4691 
C 1491 4544 1190 4435 774 4358 
L 774 3987 
L 1613 3987 
L 1613 486 
L 563 486 
L 563 0 
z
" transform="scale(0.015625)"/>
       </defs>
       <use xlink:href="#NotoSansCJKjp-Regular-47"/>
       <use xlink:href="#NotoSansCJKjp-Regular-35" transform="translate(68.899994 0)"/>
       <use xlink:href="#NotoSansCJKjp-Regular-20" transform="translate(124.399979 0)"/>
       <use xlink:href="#NotoSansCJKjp-Regular-31" transform="translate(146.799973 0)"/>
       <use xlink:href="#NotoSansCJKjp-Regular-2e" transform="translate(202.299957 0)"/>
       <use xlink:href="#NotoSansCJKjp-Regular-35" transform="translate(230.099945 0)"/>
       <use xlink:href="#NotoSansCJKjp-Regular-42" transform="translate(285.59993 0)"/>
       <use xlink:href="#NotoSansCJKjp-Regular-20" transform="translate(351.299927 0)"/>
       <use xlink:href="#NotoSansCJKjp-Regular-53" transform="translate(373.699921 0)"/>
       <use xlink:href="#NotoSansCJKjp-Regular-46" transform="translate(433.299911 0)"/>
       <use xlink:href="#NotoSansCJKjp-Regular-54" transform="translate(488.499908 0)"/>
      </g>
     </g>
    </g>
    <g id="xtick_6">
     <g id="line2d_11">
      <path d="M 737.748321 474.217044 
L 737.748321 27.526875 
" clip-path="url(#p80077abbc4)" style="fill: none; stroke: #b0b0b0; stroke-opacity: 0.18; stroke-width: 0.8; stroke-linecap: square"/>
     </g>
     <g id="line2d_12">
      <g>
       <use xlink:href="#m901a238996" x="737.748321" y="474.217044" style="stroke: #000000; stroke-width: 0.8"/>
      </g>
     </g>
     <g id="text_6">
      <!-- G4 3B 4-bit -->
      <g transform="translate(690.773812 509.883847) rotate(-25) scale(0.1 -0.1)">
       <defs>
        <path id="NotoSansCJKjp-Regular-34" d="M 2176 0 
L 2726 0 
L 2726 1293 
L 3354 1293 
L 3354 1760 
L 2726 1760 
L 2726 4691 
L 2080 4691 
L 128 1677 
L 128 1293 
L 2176 1293 
L 2176 0 
z
M 2176 1760 
L 736 1760 
L 1805 3360 
C 1939 3590 2067 3827 2182 4051 
L 2208 4051 
C 2195 3814 2176 3430 2176 3200 
L 2176 1760 
z
" transform="scale(0.015625)"/>
        <path id="NotoSansCJKjp-Regular-74" d="M 1677 -83 
C 1894 -83 2125 -19 2323 45 
L 2208 486 
C 2093 435 1939 390 1811 390 
C 1408 390 1274 634 1274 1056 
L 1274 3002 
L 2221 3002 
L 2221 3475 
L 1274 3475 
L 1274 4454 
L 787 4454 
L 723 3475 
L 173 3443 
L 173 3002 
L 691 3002 
L 691 1075 
C 691 378 941 -83 1677 -83 
z
" transform="scale(0.015625)"/>
       </defs>
       <use xlink:href="#NotoSansCJKjp-Regular-47"/>
       <use xlink:href="#NotoSansCJKjp-Regular-34" transform="translate(68.899994 0)"/>
       <use xlink:href="#NotoSansCJKjp-Regular-20" transform="translate(124.399979 0)"/>
       <use xlink:href="#NotoSansCJKjp-Regular-33" transform="translate(146.799973 0)"/>
       <use xlink:href="#NotoSansCJKjp-Regular-42" transform="translate(202.299957 0)"/>
       <use xlink:href="#NotoSansCJKjp-Regular-20" transform="translate(267.999954 0)"/>
       <use xlink:href="#NotoSansCJKjp-Regular-34" transform="translate(290.399948 0)"/>
       <use xlink:href="#NotoSansCJKjp-Regular-2d" transform="translate(345.899933 0)"/>
       <use xlink:href="#NotoSansCJKjp-Regular-62" transform="translate(380.59993 0)"/>
       <use xlink:href="#NotoSansCJKjp-Regular-69" transform="translate(442.399918 0)"/>
       <use xlink:href="#NotoSansCJKjp-Regular-74" transform="translate(469.899902 0)"/>
      </g>
     </g>
    </g>
    <g id="xtick_7">
     <g id="line2d_13">
      <path d="M 858.467794 474.217044 
L 858.467794 27.526875 
" clip-path="url(#p80077abbc4)" style="fill: none; stroke: #b0b0b0; stroke-opacity: 0.18; stroke-width: 0.8; stroke-linecap: square"/>
     </g>
     <g id="line2d_14">
      <g>
       <use xlink:href="#m901a238996" x="858.467794" y="474.217044" style="stroke: #000000; stroke-width: 0.8"/>
      </g>
     </g>
     <g id="text_7">
      <!-- G3 3B KD/SFT -->
      <g transform="translate(799.702787 515.381846) rotate(-25) scale(0.1 -0.1)">
       <defs>
        <path id="NotoSansCJKjp-Regular-4b" d="M 646 0 
L 1235 0 
L 1235 1485 
L 2042 2445 
L 3450 0 
L 4109 0 
L 2413 2912 
L 3885 4691 
L 3213 4691 
L 1248 2336 
L 1235 2336 
L 1235 4691 
L 646 4691 
L 646 0 
z
" transform="scale(0.015625)"/>
        <path id="NotoSansCJKjp-Regular-44" d="M 646 0 
L 1843 0 
C 3258 0 4026 877 4026 2362 
C 4026 3859 3258 4691 1818 4691 
L 646 4691 
L 646 0 
z
M 1235 486 
L 1235 4211 
L 1766 4211 
C 2874 4211 3418 3552 3418 2362 
C 3418 1178 2874 486 1766 486 
L 1235 486 
z
" transform="scale(0.015625)"/>
        <path id="NotoSansCJKjp-Regular-2f" d="M 70 -1146 
L 499 -1146 
L 2413 5082 
L 1990 5082 
L 70 -1146 
z
" transform="scale(0.015625)"/>
       </defs>
       <use xlink:href="#NotoSansCJKjp-Regular-47"/>
       <use xlink:href="#NotoSansCJKjp-Regular-33" transform="translate(68.899994 0)"/>
       <use xlink:href="#NotoSansCJKjp-Regular-20" transform="translate(124.399979 0)"/>
       <use xlink:href="#NotoSansCJKjp-Regular-33" transform="translate(146.799973 0)"/>
       <use xlink:href="#NotoSansCJKjp-Regular-42" transform="translate(202.299957 0)"/>
       <use xlink:href="#NotoSansCJKjp-Regular-20" transform="translate(267.999954 0)"/>
       <use xlink:href="#NotoSansCJKjp-Regular-4b" transform="translate(290.399948 0)"/>
       <use xlink:href="#NotoSansCJKjp-Regular-44" transform="translate(354.999939 0)"/>
       <use xlink:href="#NotoSansCJKjp-Regular-2f" transform="translate(423.799927 0)"/>
       <use xlink:href="#NotoSansCJKjp-Regular-53" transform="translate(462.999924 0)"/>
       <use xlink:href="#NotoSansCJKjp-Regular-46" transform="translate(522.599915 0)"/>
       <use xlink:href="#NotoSansCJKjp-Regular-54" transform="translate(577.799911 0)"/>
      </g>
     </g>
    </g>
   </g>
   <g id="matplotlib.axis_2">
    <g id="ytick_1">
     <g id="line2d_15">
      <path d="M 47.474375 426.185843 
L 945.144375 426.185843 
" clip-path="url(#p80077abbc4)" style="fill: none; stroke: #b0b0b0; stroke-opacity: 0.18; stroke-width: 0.8; stroke-linecap: square"/>
     </g>
     <g id="line2d_16">
      <defs>
       <path id="m9341685f61" d="M 0 0 
L -3.5 0 
" style="stroke: #000000; stroke-width: 0.8"/>
      </defs>
      <g>
       <use xlink:href="#m9341685f61" x="47.474375" y="426.185843" style="stroke: #000000; stroke-width: 0.8"/>
      </g>
     </g>
     <g id="text_8">
      <!-- 60 -->
      <g transform="translate(29.374375 430.16553) scale(0.1 -0.1)">
       <defs>
        <path id="NotoSansCJKjp-Regular-36" d="M 1926 -83 
C 2656 -83 3277 531 3277 1440 
C 3277 2426 2765 2912 1971 2912 
C 1606 2912 1197 2701 909 2349 
C 934 3802 1466 4294 2118 4294 
C 2400 4294 2682 4154 2861 3936 
L 3194 4294 
C 2931 4576 2579 4774 2093 4774 
C 1184 4774 358 4077 358 2240 
C 358 691 1030 -83 1926 -83 
z
M 922 1882 
C 1229 2317 1587 2477 1875 2477 
C 2445 2477 2720 2074 2720 1440 
C 2720 800 2374 378 1926 378 
C 1338 378 986 909 922 1882 
z
" transform="scale(0.015625)"/>
       </defs>
       <use xlink:href="#NotoSansCJKjp-Regular-36"/>
       <use xlink:href="#NotoSansCJKjp-Regular-30" transform="translate(55.499985 0)"/>
      </g>
     </g>
    </g>
    <g id="ytick_2">
     <g id="line2d_17">
      <path d="M 47.474375 330.123441 
L 945.144375 330.123441 
" clip-path="url(#p80077abbc4)" style="fill: none; stroke: #b0b0b0; stroke-opacity: 0.18; stroke-width: 0.8; stroke-linecap: square"/>
     </g>
     <g id="line2d_18">
      <g>
       <use xlink:href="#m9341685f61" x="47.474375" y="330.123441" style="stroke: #000000; stroke-width: 0.8"/>
      </g>
     </g>
     <g id="text_9">
      <!-- 70 -->
      <g transform="translate(29.374375 334.103128) scale(0.1 -0.1)">
       <defs>
        <path id="NotoSansCJKjp-Regular-37" d="M 1267 0 
L 1875 0 
C 1952 1837 2150 2931 3251 4339 
L 3251 4691 
L 314 4691 
L 314 4192 
L 2592 4192 
C 1670 2912 1350 1779 1267 0 
z
" transform="scale(0.015625)"/>
       </defs>
       <use xlink:href="#NotoSansCJKjp-Regular-37"/>
       <use xlink:href="#NotoSansCJKjp-Regular-30" transform="translate(55.499985 0)"/>
      </g>
     </g>
    </g>
    <g id="ytick_3">
     <g id="line2d_19">
      <path d="M 47.474375 234.061039 
L 945.144375 234.061039 
" clip-path="url(#p80077abbc4)" style="fill: none; stroke: #b0b0b0; stroke-opacity: 0.18; stroke-width: 0.8; stroke-linecap: square"/>
     </g>
     <g id="line2d_20">
      <g>
       <use xlink:href="#m9341685f61" x="47.474375" y="234.061039" style="stroke: #000000; stroke-width: 0.8"/>
      </g>
     </g>
     <g id="text_10">
      <!-- 80 -->
      <g transform="translate(29.374375 238.040727) scale(0.1 -0.1)">
       <defs>
        <path id="NotoSansCJKjp-Regular-38" d="M 1792 -83 
C 2669 -83 3258 448 3258 1126 
C 3258 1773 2880 2125 2470 2362 
L 2470 2394 
C 2746 2611 3091 3034 3091 3526 
C 3091 4250 2605 4762 1805 4762 
C 1075 4762 518 4282 518 3571 
C 518 3078 813 2726 1152 2490 
L 1152 2464 
C 723 2234 294 1792 294 1165 
C 294 442 922 -83 1792 -83 
z
M 2112 2547 
C 1555 2765 1050 3014 1050 3571 
C 1050 4026 1363 4326 1798 4326 
C 2298 4326 2592 3962 2592 3494 
C 2592 3149 2426 2829 2112 2547 
z
M 1798 352 
C 1235 352 813 717 813 1216 
C 813 1664 1082 2035 1459 2278 
C 2125 2010 2701 1779 2701 1146 
C 2701 678 2342 352 1798 352 
z
" transform="scale(0.015625)"/>
       </defs>
       <use xlink:href="#NotoSansCJKjp-Regular-38"/>
       <use xlink:href="#NotoSansCJKjp-Regular-30" transform="translate(55.499985 0)"/>
      </g>
     </g>
    </g>
    <g id="ytick_4">
     <g id="line2d_21">
      <path d="M 47.474375 137.998637 
L 945.144375 137.998637 
" clip-path="url(#p80077abbc4)" style="fill: none; stroke: #b0b0b0; stroke-opacity: 0.18; stroke-width: 0.8; stroke-linecap: square"/>
     </g>
     <g id="line2d_22">
      <g>
       <use xlink:href="#m9341685f61" x="47.474375" y="137.998637" style="stroke: #000000; stroke-width: 0.8"/>
      </g>
     </g>
     <g id="text_11">
      <!-- 90 -->
      <g transform="translate(29.374375 141.978325) scale(0.1 -0.1)">
       <defs>
        <path id="NotoSansCJKjp-Regular-39" d="M 1504 -83 
C 2381 -83 3206 646 3206 2547 
C 3206 4038 2528 4774 1626 4774 
C 896 4774 282 4166 282 3251 
C 282 2285 794 1779 1574 1779 
C 1965 1779 2368 2003 2656 2349 
C 2611 896 2086 403 1485 403 
C 1178 403 896 538 691 762 
L 371 397 
C 634 122 992 -83 1504 -83 
z
M 2650 2842 
C 2336 2394 1984 2214 1670 2214 
C 1114 2214 832 2624 832 3251 
C 832 3898 1178 4320 1632 4320 
C 2227 4320 2586 3808 2650 2842 
z
" transform="scale(0.015625)"/>
       </defs>
       <use xlink:href="#NotoSansCJKjp-Regular-39"/>
       <use xlink:href="#NotoSansCJKjp-Regular-30" transform="translate(55.499985 0)"/>
      </g>
     </g>
    </g>
    <g id="ytick_5">
     <g id="line2d_23">
      <path d="M 47.474375 41.936235 
L 945.144375 41.936235 
" clip-path="url(#p80077abbc4)" style="fill: none; stroke: #b0b0b0; stroke-opacity: 0.18; stroke-width: 0.8; stroke-linecap: square"/>
     </g>
     <g id="line2d_24">
      <g>
       <use xlink:href="#m9341685f61" x="47.474375" y="41.936235" style="stroke: #000000; stroke-width: 0.8"/>
      </g>
     </g>
     <g id="text_12">
      <!-- 100 -->
      <g transform="translate(23.824375 45.915923) scale(0.1 -0.1)">
       <use xlink:href="#NotoSansCJKjp-Regular-31"/>
       <use xlink:href="#NotoSansCJKjp-Regular-30" transform="translate(55.499985 0)"/>
       <use xlink:href="#NotoSansCJKjp-Regular-30" transform="translate(110.999969 0)"/>
      </g>
     </g>
    </g>
    <g id="text_13">
     <!-- Accuracy (%) -->
     <g transform="translate(17.015625 287.098834) rotate(-90) scale(0.12 -0.12)">
      <defs>
       <path id="NotoSansCJKjp-Regular-41" d="M 26 0 
L 621 0 
L 1075 1434 
L 2790 1434 
L 3238 0 
L 3866 0 
L 2272 4691 
L 1613 4691 
L 26 0 
z
M 1222 1901 
L 1453 2624 
C 1619 3155 1773 3661 1920 4211 
L 1946 4211 
C 2099 3667 2246 3155 2419 2624 
L 2643 1901 
L 1222 1901 
z
" transform="scale(0.015625)"/>
       <path id="NotoSansCJKjp-Regular-75" d="M 1606 -83 
C 2080 -83 2426 166 2752 544 
L 2771 544 
L 2816 0 
L 3302 0 
L 3302 3475 
L 2720 3475 
L 2720 1011 
C 2387 602 2138 422 1779 422 
C 1318 422 1126 698 1126 1344 
L 1126 3475 
L 538 3475 
L 538 1274 
C 538 384 870 -83 1606 -83 
z
" transform="scale(0.015625)"/>
       <path id="NotoSansCJKjp-Regular-61" d="M 1389 -83 
C 1818 -83 2208 141 2541 416 
L 2560 416 
L 2611 0 
L 3091 0 
L 3091 2138 
C 3091 3002 2739 3565 1888 3565 
C 1325 3565 838 3315 525 3110 
L 749 2707 
C 1024 2893 1389 3078 1792 3078 
C 2362 3078 2509 2650 2509 2202 
C 1030 2035 378 1658 378 902 
C 378 275 806 -83 1389 -83 
z
M 1555 390 
C 1210 390 941 544 941 941 
C 941 1389 1338 1677 2509 1811 
L 2509 845 
C 2170 544 1888 390 1555 390 
z
" transform="scale(0.015625)"/>
       <path id="NotoSansCJKjp-Regular-79" d="M 646 -1498 
C 1338 -1498 1702 -973 1946 -294 
L 3251 3475 
L 2682 3475 
L 2054 1549 
C 1965 1235 1862 883 1773 563 
L 1741 563 
C 1619 890 1504 1242 1395 1549 
L 691 3475 
L 83 3475 
L 1478 -6 
L 1402 -269 
C 1254 -698 1011 -1018 621 -1018 
C 525 -1018 422 -986 352 -960 
L 237 -1427 
C 346 -1472 486 -1498 646 -1498 
z
" transform="scale(0.015625)"/>
       <path id="NotoSansCJKjp-Regular-28" d="M 1530 -1254 
L 1888 -1094 
C 1338 -186 1075 902 1075 1990 
C 1075 3072 1338 4154 1888 5069 
L 1530 5235 
C 941 4275 589 3245 589 1990 
C 589 730 941 -301 1530 -1254 
z
" transform="scale(0.015625)"/>
       <path id="NotoSansCJKjp-Regular-25" d="M 1312 1818 
C 1958 1818 2381 2362 2381 3309 
C 2381 4243 1958 4774 1312 4774 
C 672 4774 250 4243 250 3309 
C 250 2362 672 1818 1312 1818 
z
M 1312 2176 
C 941 2176 691 2560 691 3309 
C 691 4058 941 4416 1312 4416 
C 1683 4416 1933 4058 1933 3309 
C 1933 2560 1683 2176 1312 2176 
z
M 1446 -83 
L 1843 -83 
L 4435 4774 
L 4038 4774 
L 1446 -83 
z
M 4582 -83 
C 5222 -83 5645 454 5645 1402 
C 5645 2342 5222 2874 4582 2874 
C 3942 2874 3520 2342 3520 1402 
C 3520 454 3942 -83 4582 -83 
z
M 4582 275 
C 4211 275 3955 653 3955 1402 
C 3955 2150 4211 2515 4582 2515 
C 4947 2515 5210 2150 5210 1402 
C 5210 653 4947 275 4582 275 
z
" transform="scale(0.015625)"/>
       <path id="NotoSansCJKjp-Regular-29" d="M 634 -1254 
C 1222 -301 1574 730 1574 1990 
C 1574 3245 1222 4275 634 5235 
L 269 5069 
C 819 4154 1094 3072 1094 1990 
C 1094 902 819 -186 269 -1094 
L 634 -1254 
z
" transform="scale(0.015625)"/>
      </defs>
      <use xlink:href="#NotoSansCJKjp-Regular-41"/>
      <use xlink:href="#NotoSansCJKjp-Regular-63" transform="translate(60.799988 0)"/>
      <use xlink:href="#NotoSansCJKjp-Regular-63" transform="translate(111.799973 0)"/>
      <use xlink:href="#NotoSansCJKjp-Regular-75" transform="translate(162.799957 0)"/>
      <use xlink:href="#NotoSansCJKjp-Regular-72" transform="translate(223.499954 0)"/>
      <use xlink:href="#NotoSansCJKjp-Regular-61" transform="translate(262.299942 0)"/>
      <use xlink:href="#NotoSansCJKjp-Regular-63" transform="translate(318.59993 0)"/>
      <use xlink:href="#NotoSansCJKjp-Regular-79" transform="translate(369.599915 0)"/>
      <use xlink:href="#NotoSansCJKjp-Regular-20" transform="translate(421.699905 0)"/>
      <use xlink:href="#NotoSansCJKjp-Regular-28" transform="translate(444.099899 0)"/>
      <use xlink:href="#NotoSansCJKjp-Regular-25" transform="translate(477.899887 0)"/>
      <use xlink:href="#NotoSansCJKjp-Regular-29" transform="translate(569.999878 0)"/>
     </g>
    </g>
   </g>
   <g id="patch_3">
    <path d="M 88.277557 1002.560254 
L 134.150956 1002.560254 
L 134.150956 419.175207 
L 88.277557 419.175207 
z
" clip-path="url(#p80077abbc4)" style="fill: #b8c2cc"/>
   </g>
   <g id="patch_4">
    <path d="M 208.99703 1002.560254 
L 254.870429 1002.560254 
L 254.870429 404.987016 
L 208.99703 404.987016 
z
" clip-path="url(#p80077abbc4)" style="fill: #b8c2cc"/>
   </g>
   <g id="patch_5">
    <path d="M 329.716502 1002.560254 
L 375.589902 1002.560254 
L 375.589902 41.936235 
L 329.716502 41.936235 
z
" clip-path="url(#p80077abbc4)" style="fill: #b8c2cc"/>
   </g>
   <g id="patch_6">
    <path d="M 450.435975 1002.560254 
L 496.309375 1002.560254 
L 496.309375 43.605434 
L 450.435975 43.605434 
z
" clip-path="url(#p80077abbc4)" style="fill: #b8c2cc"/>
   </g>
   <g id="patch_7">
    <path d="M 571.155448 1002.560254 
L 617.028848 1002.560254 
L 617.028848 41.936235 
L 571.155448 41.936235 
z
" clip-path="url(#p80077abbc4)" style="fill: #b8c2cc"/>
   </g>
   <g id="patch_8">
    <path d="M 691.874921 1002.560254 
L 737.748321 1002.560254 
L 737.748321 42.770835 
L 691.874921 42.770835 
z
" clip-path="url(#p80077abbc4)" style="fill: #b8c2cc"/>
   </g>
   <g id="patch_9">
    <path d="M 812.594394 1002.560254 
L 858.467794 1002.560254 
L 858.467794 42.770835 
L 812.594394 42.770835 
z
" clip-path="url(#p80077abbc4)" style="fill: #b8c2cc"/>
   </g>
   <g id="patch_10">
    <path d="M 134.150956 1002.560254 
L 180.024356 1002.560254 
L 180.024356 397.367122 
L 134.150956 397.367122 
z
" clip-path="url(#p80077abbc4)" style="fill: #8a8f98"/>
   </g>
   <g id="patch_11">
    <path d="M 254.870429 1002.560254 
L 300.743829 1002.560254 
L 300.743829 443.477075 
L 254.870429 443.477075 
z
" clip-path="url(#p80077abbc4)" style="fill: #6f747d"/>
   </g>
   <g id="patch_12">
    <path d="M 375.589902 1002.560254 
L 421.463302 1002.560254 
L 421.463302 66.91246 
L 375.589902 66.91246 
z
" clip-path="url(#p80077abbc4)" style="fill: #1b8a8f"/>
   </g>
   <g id="patch_13">
    <path d="M 496.309375 1002.560254 
L 542.182775 1002.560254 
L 542.182775 74.597452 
L 496.309375 74.597452 
z
" clip-path="url(#p80077abbc4)" style="fill: #3a9d5d"/>
   </g>
   <g id="patch_14">
    <path d="M 617.028848 1002.560254 
L 662.902248 1002.560254 
L 662.902248 64.991212 
L 617.028848 64.991212 
z
" clip-path="url(#p80077abbc4)" style="fill: #3a9d5d"/>
   </g>
   <g id="patch_15">
    <path d="M 737.748321 1002.560254 
L 783.62172 1002.560254 
L 783.62172 66.91246 
L 737.748321 66.91246 
z
" clip-path="url(#p80077abbc4)" style="fill: #7f63b8"/>
   </g>
   <g id="patch_16">
    <path d="M 858.467794 1002.560254 
L 904.341193 1002.560254 
L 904.341193 49.621227 
L 858.467794 49.621227 
z
" clip-path="url(#p80077abbc4)" style="fill: #c84a3a"/>
   </g>
   <g id="patch_17">
    <path d="M 47.474375 474.217044 
L 47.474375 27.526875 
" style="fill: none; stroke: #000000; stroke-width: 0.8; stroke-linejoin: miter; stroke-linecap: square"/>
   </g>
   <g id="patch_18">
    <path d="M 47.474375 474.217044 
L 945.144375 474.217044 
" style="fill: none; stroke: #000000; stroke-width: 0.8; stroke-linejoin: miter; stroke-linecap: square"/>
   </g>
   <g id="text_14">
    <!-- 60.7 -->
    <g transform="translate(103.442382 414.372087) scale(0.08 -0.08)">
     <use xlink:href="#NotoSansCJKjp-Regular-36"/>
     <use xlink:href="#NotoSansCJKjp-Regular-30" transform="translate(55.499985 0)"/>
     <use xlink:href="#NotoSansCJKjp-Regular-2e" transform="translate(110.999969 0)"/>
     <use xlink:href="#NotoSansCJKjp-Regular-37" transform="translate(138.799957 0)"/>
    </g>
   </g>
   <g id="text_15">
    <!-- 63.0 -->
    <g transform="translate(149.315781 392.564002) scale(0.08 -0.08)">
     <use xlink:href="#NotoSansCJKjp-Regular-36"/>
     <use xlink:href="#NotoSansCJKjp-Regular-33" transform="translate(55.499985 0)"/>
     <use xlink:href="#NotoSansCJKjp-Regular-2e" transform="translate(110.999969 0)"/>
     <use xlink:href="#NotoSansCJKjp-Regular-30" transform="translate(138.799957 0)"/>
    </g>
   </g>
   <g id="text_16">
    <!-- 62.2 -->
    <g transform="translate(224.161854 400.183895) scale(0.08 -0.08)">
     <use xlink:href="#NotoSansCJKjp-Regular-36"/>
     <use xlink:href="#NotoSansCJKjp-Regular-32" transform="translate(55.499985 0)"/>
     <use xlink:href="#NotoSansCJKjp-Regular-2e" transform="translate(110.999969 0)"/>
     <use xlink:href="#NotoSansCJKjp-Regular-32" transform="translate(138.799957 0)"/>
    </g>
   </g>
   <g id="text_17">
    <!-- 58.2 -->
    <g transform="translate(270.035254 438.673955) scale(0.08 -0.08)">
     <use xlink:href="#NotoSansCJKjp-Regular-35"/>
     <use xlink:href="#NotoSansCJKjp-Regular-38" transform="translate(55.499985 0)"/>
     <use xlink:href="#NotoSansCJKjp-Regular-2e" transform="translate(110.999969 0)"/>
     <use xlink:href="#NotoSansCJKjp-Regular-32" transform="translate(138.799957 0)"/>
    </g>
   </g>
   <g id="text_18">
    <!-- 100.0 -->
    <g transform="translate(342.661327 37.133115) scale(0.08 -0.08)">
     <use xlink:href="#NotoSansCJKjp-Regular-31"/>
     <use xlink:href="#NotoSansCJKjp-Regular-30" transform="translate(55.499985 0)"/>
     <use xlink:href="#NotoSansCJKjp-Regular-30" transform="translate(110.999969 0)"/>
     <use xlink:href="#NotoSansCJKjp-Regular-2e" transform="translate(166.499954 0)"/>
     <use xlink:href="#NotoSansCJKjp-Regular-30" transform="translate(194.299942 0)"/>
    </g>
   </g>
   <g id="text_19">
    <!-- 97.4 -->
    <g transform="translate(390.754727 62.10934) scale(0.08 -0.08)">
     <use xlink:href="#NotoSansCJKjp-Regular-39"/>
     <use xlink:href="#NotoSansCJKjp-Regular-37" transform="translate(55.499985 0)"/>
     <use xlink:href="#NotoSansCJKjp-Regular-2e" transform="translate(110.999969 0)"/>
     <use xlink:href="#NotoSansCJKjp-Regular-34" transform="translate(138.799957 0)"/>
    </g>
   </g>
   <g id="text_20">
    <!-- 99.8 -->
    <g transform="translate(465.6008 38.802314) scale(0.08 -0.08)">
     <use xlink:href="#NotoSansCJKjp-Regular-39"/>
     <use xlink:href="#NotoSansCJKjp-Regular-39" transform="translate(55.499985 0)"/>
     <use xlink:href="#NotoSansCJKjp-Regular-2e" transform="translate(110.999969 0)"/>
     <use xlink:href="#NotoSansCJKjp-Regular-38" transform="translate(138.799957 0)"/>
    </g>
   </g>
   <g id="text_21">
    <!-- 96.6 -->
    <g transform="translate(511.4742 69.794332) scale(0.08 -0.08)">
     <use xlink:href="#NotoSansCJKjp-Regular-39"/>
     <use xlink:href="#NotoSansCJKjp-Regular-36" transform="translate(55.499985 0)"/>
     <use xlink:href="#NotoSansCJKjp-Regular-2e" transform="translate(110.999969 0)"/>
     <use xlink:href="#NotoSansCJKjp-Regular-36" transform="translate(138.799957 0)"/>
    </g>
   </g>
   <g id="text_22">
    <!-- 100.0 -->
    <g transform="translate(584.100273 37.133115) scale(0.08 -0.08)">
     <use xlink:href="#NotoSansCJKjp-Regular-31"/>
     <use xlink:href="#NotoSansCJKjp-Regular-30" transform="translate(55.499985 0)"/>
     <use xlink:href="#NotoSansCJKjp-Regular-30" transform="translate(110.999969 0)"/>
     <use xlink:href="#NotoSansCJKjp-Regular-2e" transform="translate(166.499954 0)"/>
     <use xlink:href="#NotoSansCJKjp-Regular-30" transform="translate(194.299942 0)"/>
    </g>
   </g>
   <g id="text_23">
    <!-- 97.6 -->
    <g transform="translate(632.193673 60.188092) scale(0.08 -0.08)">
     <use xlink:href="#NotoSansCJKjp-Regular-39"/>
     <use xlink:href="#NotoSansCJKjp-Regular-37" transform="translate(55.499985 0)"/>
     <use xlink:href="#NotoSansCJKjp-Regular-2e" transform="translate(110.999969 0)"/>
     <use xlink:href="#NotoSansCJKjp-Regular-36" transform="translate(138.799957 0)"/>
    </g>
   </g>
   <g id="text_24">
    <!-- 99.9 -->
    <g transform="translate(707.039746 37.967715) scale(0.08 -0.08)">
     <use xlink:href="#NotoSansCJKjp-Regular-39"/>
     <use xlink:href="#NotoSansCJKjp-Regular-39" transform="translate(55.499985 0)"/>
     <use xlink:href="#NotoSansCJKjp-Regular-2e" transform="translate(110.999969 0)"/>
     <use xlink:href="#NotoSansCJKjp-Regular-39" transform="translate(138.799957 0)"/>
    </g>
   </g>
   <g id="text_25">
    <!-- 97.4 -->
    <g transform="translate(752.913146 62.10934) scale(0.08 -0.08)">
     <use xlink:href="#NotoSansCJKjp-Regular-39"/>
     <use xlink:href="#NotoSansCJKjp-Regular-37" transform="translate(55.499985 0)"/>
     <use xlink:href="#NotoSansCJKjp-Regular-2e" transform="translate(110.999969 0)"/>
     <use xlink:href="#NotoSansCJKjp-Regular-34" transform="translate(138.799957 0)"/>
    </g>
   </g>
   <g id="text_26">
    <!-- 99.9 -->
    <g transform="translate(827.759219 37.967715) scale(0.08 -0.08)">
     <use xlink:href="#NotoSansCJKjp-Regular-39"/>
     <use xlink:href="#NotoSansCJKjp-Regular-39" transform="translate(55.499985 0)"/>
     <use xlink:href="#NotoSansCJKjp-Regular-2e" transform="translate(110.999969 0)"/>
     <use xlink:href="#NotoSansCJKjp-Regular-39" transform="translate(138.799957 0)"/>
    </g>
   </g>
   <g id="text_27">
    <!-- 99.2 -->
    <g transform="translate(873.632618 44.818107) scale(0.08 -0.08)">
     <use xlink:href="#NotoSansCJKjp-Regular-39"/>
     <use xlink:href="#NotoSansCJKjp-Regular-39" transform="translate(55.499985 0)"/>
     <use xlink:href="#NotoSansCJKjp-Regular-2e" transform="translate(110.999969 0)"/>
     <use xlink:href="#NotoSansCJKjp-Regular-32" transform="translate(138.799957 0)"/>
    </g>
   </g>
   <g id="text_28">
    <!-- Final raw test vs Check-500: hard slice reveals methodology gap -->
    <g transform="translate(230.010625 21.526875) scale(0.18 -0.18)">
     <defs>
      <path id="NotoSansCJKjp-Regular-6c" d="M 1203 -83 
C 1363 -83 1459 -58 1542 -32 
L 1459 416 
C 1395 403 1370 403 1338 403 
C 1248 403 1178 474 1178 653 
L 1178 5094 
L 589 5094 
L 589 691 
C 589 198 768 -83 1203 -83 
z
" transform="scale(0.015625)"/>
      <path id="NotoSansCJKjp-Regular-77" d="M 1139 0 
L 1818 0 
L 2310 1862 
C 2400 2195 2470 2522 2547 2874 
L 2579 2874 
C 2662 2522 2726 2202 2816 1875 
L 3315 0 
L 4026 0 
L 4966 3475 
L 4403 3475 
L 3898 1466 
C 3821 1133 3757 819 3686 499 
L 3654 499 
C 3571 819 3494 1133 3411 1466 
L 2867 3475 
L 2298 3475 
L 1754 1466 
C 1670 1133 1594 819 1523 499 
L 1491 499 
C 1421 819 1357 1133 1286 1466 
L 768 3475 
L 173 3475 
L 1139 0 
z
" transform="scale(0.015625)"/>
      <path id="NotoSansCJKjp-Regular-76" d="M 1338 0 
L 2022 0 
L 3251 3475 
L 2675 3475 
L 2016 1498 
C 1914 1158 1798 806 1696 474 
L 1664 474 
C 1562 806 1453 1158 1344 1498 
L 691 3475 
L 83 3475 
L 1338 0 
z
" transform="scale(0.015625)"/>
      <path id="NotoSansCJKjp-Regular-68" d="M 589 0 
L 1178 0 
L 1178 2522 
C 1523 2874 1766 3053 2125 3053 
C 2586 3053 2784 2778 2784 2125 
L 2784 0 
L 3366 0 
L 3366 2202 
C 3366 3085 3034 3565 2304 3565 
C 1830 3565 1472 3302 1152 2982 
L 1178 3699 
L 1178 5094 
L 589 5094 
L 589 0 
z
" transform="scale(0.015625)"/>
      <path id="NotoSansCJKjp-Regular-6b" d="M 589 0 
L 1165 0 
L 1165 915 
L 1818 1677 
L 2835 0 
L 3469 0 
L 2157 2074 
L 3315 3475 
L 2662 3475 
L 1190 1645 
L 1165 1645 
L 1165 5094 
L 589 5094 
L 589 0 
z
" transform="scale(0.015625)"/>
      <path id="NotoSansCJKjp-Regular-3a" d="M 890 2496 
C 1120 2496 1312 2675 1312 2944 
C 1312 3206 1120 3392 890 3392 
C 653 3392 467 3206 467 2944 
C 467 2675 653 2496 890 2496 
z
M 890 -83 
C 1120 -83 1312 96 1312 358 
C 1312 627 1120 806 890 806 
C 653 806 467 627 467 358 
C 467 96 653 -83 890 -83 
z
" transform="scale(0.015625)"/>
      <path id="NotoSansCJKjp-Regular-70" d="M 589 -1466 
L 1178 -1466 
L 1178 -288 
L 1158 320 
C 1472 58 1805 -83 2118 -83 
C 2912 -83 3629 602 3629 1792 
C 3629 2867 3142 3565 2246 3565 
C 1843 3565 1453 3334 1139 3072 
L 1126 3072 
L 1069 3475 
L 589 3475 
L 589 -1466 
z
M 2022 410 
C 1792 410 1485 499 1178 768 
L 1178 2598 
C 1510 2906 1811 3072 2099 3072 
C 2765 3072 3021 2560 3021 1786 
C 3021 928 2598 410 2022 410 
z
" transform="scale(0.015625)"/>
     </defs>
     <use xlink:href="#NotoSansCJKjp-Regular-46"/>
     <use xlink:href="#NotoSansCJKjp-Regular-69" transform="translate(55.199997 0)"/>
     <use xlink:href="#NotoSansCJKjp-Regular-6e" transform="translate(82.699982 0)"/>
     <use xlink:href="#NotoSansCJKjp-Regular-61" transform="translate(143.699966 0)"/>
     <use xlink:href="#NotoSansCJKjp-Regular-6c" transform="translate(199.999954 0)"/>
     <use xlink:href="#NotoSansCJKjp-Regular-20" transform="translate(228.399948 0)"/>
     <use xlink:href="#NotoSansCJKjp-Regular-72" transform="translate(250.799942 0)"/>
     <use xlink:href="#NotoSansCJKjp-Regular-61" transform="translate(289.59993 0)"/>
     <use xlink:href="#NotoSansCJKjp-Regular-77" transform="translate(345.899918 0)"/>
     <use xlink:href="#NotoSansCJKjp-Regular-20" transform="translate(426.099899 0)"/>
     <use xlink:href="#NotoSansCJKjp-Regular-74" transform="translate(448.499893 0)"/>
     <use xlink:href="#NotoSansCJKjp-Regular-65" transform="translate(486.19989 0)"/>
     <use xlink:href="#NotoSansCJKjp-Regular-73" transform="translate(541.599884 0)"/>
     <use xlink:href="#NotoSansCJKjp-Regular-74" transform="translate(588.399872 0)"/>
     <use xlink:href="#NotoSansCJKjp-Regular-20" transform="translate(626.099869 0)"/>
     <use xlink:href="#NotoSansCJKjp-Regular-76" transform="translate(648.499863 0)"/>
     <use xlink:href="#NotoSansCJKjp-Regular-73" transform="translate(700.599854 0)"/>
     <use xlink:href="#NotoSansCJKjp-Regular-20" transform="translate(747.399841 0)"/>
     <use xlink:href="#NotoSansCJKjp-Regular-43" transform="translate(769.799835 0)"/>
     <use xlink:href="#NotoSansCJKjp-Regular-68" transform="translate(833.599823 0)"/>
     <use xlink:href="#NotoSansCJKjp-Regular-65" transform="translate(894.29982 0)"/>
     <use xlink:href="#NotoSansCJKjp-Regular-63" transform="translate(949.699814 0)"/>
     <use xlink:href="#NotoSansCJKjp-Regular-6b" transform="translate(1000.699799 0)"/>
     <use xlink:href="#NotoSansCJKjp-Regular-2d" transform="translate(1055.899796 0)"/>
     <use xlink:href="#NotoSansCJKjp-Regular-35" transform="translate(1090.599792 0)"/>
     <use xlink:href="#NotoSansCJKjp-Regular-30" transform="translate(1146.099777 0)"/>
     <use xlink:href="#NotoSansCJKjp-Regular-30" transform="translate(1201.599762 0)"/>
     <use xlink:href="#NotoSansCJKjp-Regular-3a" transform="translate(1257.099747 0)"/>
     <use xlink:href="#NotoSansCJKjp-Regular-20" transform="translate(1284.899734 0)"/>
     <use xlink:href="#NotoSansCJKjp-Regular-68" transform="translate(1307.299728 0)"/>
     <use xlink:href="#NotoSansCJKjp-Regular-61" transform="translate(1367.999725 0)"/>
     <use xlink:href="#NotoSansCJKjp-Regular-72" transform="translate(1424.299713 0)"/>
     <use xlink:href="#NotoSansCJKjp-Regular-64" transform="translate(1463.099701 0)"/>
     <use xlink:href="#NotoSansCJKjp-Regular-20" transform="translate(1525.099686 0)"/>
     <use xlink:href="#NotoSansCJKjp-Regular-73" transform="translate(1547.49968 0)"/>
     <use xlink:href="#NotoSansCJKjp-Regular-6c" transform="translate(1594.299667 0)"/>
     <use xlink:href="#NotoSansCJKjp-Regular-69" transform="translate(1622.699661 0)"/>
     <use xlink:href="#NotoSansCJKjp-Regular-63" transform="translate(1650.199646 0)"/>
     <use xlink:href="#NotoSansCJKjp-Regular-65" transform="translate(1701.199631 0)"/>
     <use xlink:href="#NotoSansCJKjp-Regular-20" transform="translate(1756.599625 0)"/>
     <use xlink:href="#NotoSansCJKjp-Regular-72" transform="translate(1778.999619 0)"/>
     <use xlink:href="#NotoSansCJKjp-Regular-65" transform="translate(1817.799606 0)"/>
     <use xlink:href="#NotoSansCJKjp-Regular-76" transform="translate(1873.1996 0)"/>
     <use xlink:href="#NotoSansCJKjp-Regular-65" transform="translate(1925.299591 0)"/>
     <use xlink:href="#NotoSansCJKjp-Regular-61" transform="translate(1980.699585 0)"/>
     <use xlink:href="#NotoSansCJKjp-Regular-6c" transform="translate(2036.999573 0)"/>
     <use xlink:href="#NotoSansCJKjp-Regular-73" transform="translate(2065.399567 0)"/>
     <use xlink:href="#NotoSansCJKjp-Regular-20" transform="translate(2112.199554 0)"/>
     <use xlink:href="#NotoSansCJKjp-Regular-6d" transform="translate(2134.599548 0)"/>
     <use xlink:href="#NotoSansCJKjp-Regular-65" transform="translate(2227.199539 0)"/>
     <use xlink:href="#NotoSansCJKjp-Regular-74" transform="translate(2282.599533 0)"/>
     <use xlink:href="#NotoSansCJKjp-Regular-68" transform="translate(2320.29953 0)"/>
     <use xlink:href="#NotoSansCJKjp-Regular-6f" transform="translate(2380.999527 0)"/>
     <use xlink:href="#NotoSansCJKjp-Regular-64" transform="translate(2441.599518 0)"/>
     <use xlink:href="#NotoSansCJKjp-Regular-6f" transform="translate(2503.599503 0)"/>
     <use xlink:href="#NotoSansCJKjp-Regular-6c" transform="translate(2564.199493 0)"/>
     <use xlink:href="#NotoSansCJKjp-Regular-6f" transform="translate(2592.599487 0)"/>
     <use xlink:href="#NotoSansCJKjp-Regular-67" transform="translate(2653.199478 0)"/>
     <use xlink:href="#NotoSansCJKjp-Regular-79" transform="translate(2709.599472 0)"/>
     <use xlink:href="#NotoSansCJKjp-Regular-20" transform="translate(2761.699463 0)"/>
     <use xlink:href="#NotoSansCJKjp-Regular-67" transform="translate(2784.099457 0)"/>
     <use xlink:href="#NotoSansCJKjp-Regular-61" transform="translate(2840.499451 0)"/>
     <use xlink:href="#NotoSansCJKjp-Regular-70" transform="translate(2896.799438 0)"/>
    </g>
   </g>
   <g id="legend_1">
    <g id="patch_19">
     <path d="M 786.511562 447.467044 
L 806.511562 447.467044 
L 806.511562 440.467044 
L 786.511562 440.467044 
z
" style="fill: #b8c2cc"/>
    </g>
    <g id="text_29">
     <!-- Original final raw test -->
     <g transform="translate(814.511562 447.467044) scale(0.1 -0.1)">
      <defs>
       <path id="NotoSansCJKjp-Regular-4f" d="M 2374 -83 
C 3552 -83 4378 858 4378 2362 
C 4378 3866 3552 4774 2374 4774 
C 1197 4774 371 3866 371 2362 
C 371 858 1197 -83 2374 -83 
z
M 2374 435 
C 1530 435 979 1190 979 2362 
C 979 3533 1530 4256 2374 4256 
C 3219 4256 3770 3533 3770 2362 
C 3770 1190 3219 435 2374 435 
z
" transform="scale(0.015625)"/>
       <path id="NotoSansCJKjp-Regular-66" d="M 211 3002 
L 685 3002 
L 685 0 
L 1267 0 
L 1267 3002 
L 2003 3002 
L 2003 3475 
L 1267 3475 
L 1267 4026 
C 1267 4474 1427 4710 1760 4710 
C 1882 4710 2022 4678 2150 4614 
L 2278 5069 
C 2118 5133 1914 5178 1696 5178 
C 1005 5178 685 4736 685 4032 
L 685 3475 
L 211 3443 
L 211 3002 
z
" transform="scale(0.015625)"/>
      </defs>
      <use xlink:href="#NotoSansCJKjp-Regular-4f"/>
      <use xlink:href="#NotoSansCJKjp-Regular-72" transform="translate(74.199982 0)"/>
      <use xlink:href="#NotoSansCJKjp-Regular-69" transform="translate(112.999969 0)"/>
      <use xlink:href="#NotoSansCJKjp-Regular-67" transform="translate(140.499954 0)"/>
      <use xlink:href="#NotoSansCJKjp-Regular-69" transform="translate(196.899948 0)"/>
      <use xlink:href="#NotoSansCJKjp-Regular-6e" transform="translate(224.399933 0)"/>
      <use xlink:href="#NotoSansCJKjp-Regular-61" transform="translate(285.399918 0)"/>
      <use xlink:href="#NotoSansCJKjp-Regular-6c" transform="translate(341.699905 0)"/>
      <use xlink:href="#NotoSansCJKjp-Regular-20" transform="translate(370.099899 0)"/>
      <use xlink:href="#NotoSansCJKjp-Regular-66" transform="translate(392.499893 0)"/>
      <use xlink:href="#NotoSansCJKjp-Regular-69" transform="translate(424.999878 0)"/>
      <use xlink:href="#NotoSansCJKjp-Regular-6e" transform="translate(452.499863 0)"/>
      <use xlink:href="#NotoSansCJKjp-Regular-61" transform="translate(513.499847 0)"/>
      <use xlink:href="#NotoSansCJKjp-Regular-6c" transform="translate(569.799835 0)"/>
      <use xlink:href="#NotoSansCJKjp-Regular-20" transform="translate(598.199829 0)"/>
      <use xlink:href="#NotoSansCJKjp-Regular-72" transform="translate(620.599823 0)"/>
      <use xlink:href="#NotoSansCJKjp-Regular-61" transform="translate(659.399811 0)"/>
      <use xlink:href="#NotoSansCJKjp-Regular-77" transform="translate(715.699799 0)"/>
      <use xlink:href="#NotoSansCJKjp-Regular-20" transform="translate(795.89978 0)"/>
      <use xlink:href="#NotoSansCJKjp-Regular-74" transform="translate(818.299774 0)"/>
      <use xlink:href="#NotoSansCJKjp-Regular-65" transform="translate(855.999771 0)"/>
      <use xlink:href="#NotoSansCJKjp-Regular-73" transform="translate(911.399765 0)"/>
      <use xlink:href="#NotoSansCJKjp-Regular-74" transform="translate(958.199753 0)"/>
     </g>
    </g>
    <g id="patch_20">
     <path d="M 786.511562 462.926419 
L 806.511562 462.926419 
L 806.511562 455.926419 
L 786.511562 455.926419 
z
" style="fill: #8a8f98"/>
    </g>
    <g id="text_30">
     <!-- Check-500 mixed/hard set -->
     <g transform="translate(814.511562 462.926419) scale(0.1 -0.1)">
      <defs>
       <path id="NotoSansCJKjp-Regular-78" d="M 96 0 
L 710 0 
L 1178 813 
C 1299 1024 1408 1235 1530 1434 
L 1562 1434 
C 1696 1235 1824 1024 1939 813 
L 2451 0 
L 3091 0 
L 1946 1754 
L 3002 3475 
L 2394 3475 
L 1965 2714 
C 1856 2515 1760 2330 1658 2131 
L 1626 2131 
C 1510 2330 1389 2515 1286 2714 
L 819 3475 
L 186 3475 
L 1242 1811 
L 96 0 
z
" transform="scale(0.015625)"/>
      </defs>
      <use xlink:href="#NotoSansCJKjp-Regular-43"/>
      <use xlink:href="#NotoSansCJKjp-Regular-68" transform="translate(63.799988 0)"/>
      <use xlink:href="#NotoSansCJKjp-Regular-65" transform="translate(124.499985 0)"/>
      <use xlink:href="#NotoSansCJKjp-Regular-63" transform="translate(179.899979 0)"/>
      <use xlink:href="#NotoSansCJKjp-Regular-6b" transform="translate(230.899963 0)"/>
      <use xlink:href="#NotoSansCJKjp-Regular-2d" transform="translate(286.09996 0)"/>
      <use xlink:href="#NotoSansCJKjp-Regular-35" transform="translate(320.799957 0)"/>
      <use xlink:href="#NotoSansCJKjp-Regular-30" transform="translate(376.299942 0)"/>
      <use xlink:href="#NotoSansCJKjp-Regular-30" transform="translate(431.799927 0)"/>
      <use xlink:href="#NotoSansCJKjp-Regular-20" transform="translate(487.299911 0)"/>
      <use xlink:href="#NotoSansCJKjp-Regular-6d" transform="translate(509.699905 0)"/>
      <use xlink:href="#NotoSansCJKjp-Regular-69" transform="translate(602.299896 0)"/>
      <use xlink:href="#NotoSansCJKjp-Regular-78" transform="translate(629.799881 0)"/>
      <use xlink:href="#NotoSansCJKjp-Regular-65" transform="translate(679.599869 0)"/>
      <use xlink:href="#NotoSansCJKjp-Regular-64" transform="translate(734.999863 0)"/>
      <use xlink:href="#NotoSansCJKjp-Regular-2f" transform="translate(796.999847 0)"/>
      <use xlink:href="#NotoSansCJKjp-Regular-68" transform="translate(836.199844 0)"/>
      <use xlink:href="#NotoSansCJKjp-Regular-61" transform="translate(896.899841 0)"/>
      <use xlink:href="#NotoSansCJKjp-Regular-72" transform="translate(953.199829 0)"/>
      <use xlink:href="#NotoSansCJKjp-Regular-64" transform="translate(991.999817 0)"/>
      <use xlink:href="#NotoSansCJKjp-Regular-20" transform="translate(1053.999802 0)"/>
      <use xlink:href="#NotoSansCJKjp-Regular-73" transform="translate(1076.399796 0)"/>
      <use xlink:href="#NotoSansCJKjp-Regular-65" transform="translate(1123.199783 0)"/>
      <use xlink:href="#NotoSansCJKjp-Regular-74" transform="translate(1178.599777 0)"/>
     </g>
    </g>
   </g>
  </g>
 </g>
 <defs>
  <clipPath id="p80077abbc4">
   <rect x="47.474375" y="27.526875" width="897.67" height="446.690169"/>
  </clipPath>
 </defs>
</svg>
